<svg xmlns="http://www.w3.org/2000/svg" xmlns:xlink="http://www.w3.org/1999/xlink" width="65" height="65" viewBox="0 0 65 65">
  <defs>
    <linearGradient id="linear-gradient" x1="0.5" x2="0.5" y2="1" gradientUnits="objectBoundingBox">
      <stop offset="0" stop-color="#ff704f"/>
      <stop offset="1" stop-color="#e11014"/>
    </linearGradient>
  </defs>
  <g id="icon-services-esemkashop" transform="translate(-893 -1327)">
    <circle id="Ellipse_15" data-name="Ellipse 15" cx="32.5" cy="32.5" r="32.5" transform="translate(893 1327)" fill="url(#linear-gradient)"/>
    <g id="Group_11" data-name="Group 11" transform="translate(910 1345)">
      <g id="Subtraction_2" data-name="Subtraction 2" transform="translate(0.978 17.94)" fill="none">
        <path d="M15.156,10.85A15.905,15.905,0,0,1,8.927,9.592,15.951,15.951,0,0,1,3.84,6.163,15.947,15.947,0,0,1,.41,1.076C.261.723.123.361,0,0H2.952a13.83,13.83,0,0,0,12.2,7.324A13.83,13.83,0,0,0,27.36,0h2.952c-.123.363-.262.724-.41,1.076a15.952,15.952,0,0,1-3.43,5.087,15.951,15.951,0,0,1-5.087,3.43A15.9,15.9,0,0,1,15.156,10.85Z" stroke="none"/>
        <path d="M 15.15595054626465 10.84964847564697 C 12.99535083770752 10.84964847564697 10.89945030212402 10.42658805847168 8.926510810852051 9.592187881469727 C 7.020830154418945 8.786067962646484 5.309410572052002 7.632187843322754 3.839790344238281 6.162548065185547 C 2.36987042427063 4.692627906799316 1.215970396995544 2.981127977371216 0.4101503789424896 1.07558810710907 C 0.2609103918075562 0.7227880358695984 0.1229103803634644 0.3609080612659454 1.038330083247274e-05 8.052520570345223e-06 L 2.952110290527344 8.052520570345223e-06 C 5.371730327606201 4.517407894134521 10.04787063598633 7.323587894439697 15.15595054626465 7.323587894439697 C 20.26393127441406 7.323587894439697 24.94009017944336 4.517348289489746 27.35960960388184 8.052520570345223e-06 L 30.31167030334473 8.052520570345223e-06 C 30.18816947937012 0.3626080453395844 30.05009078979492 0.7243680357933044 29.90151023864746 1.07558810710907 C 29.09529113769531 2.981548070907593 27.94139099121094 4.693048000335693 26.47187042236328 6.162548065185547 C 25.00225067138672 7.632187843322754 23.29084968566895 8.786067962646484 21.38515090942383 9.592187881469727 C 19.41221046447754 10.42658805847168 17.31641006469727 10.84964847564697 15.15595054626465 10.84964847564697 Z" stroke="none" fill="#fff"/>
      </g>
      <path id="Path_3" data-name="Path 3" d="M189.746-35.616c4.174,0,7.2-2.807,7.2-6.762s-3.027-6.762-7.2-6.762-7.226,2.807-7.226,6.762S185.572-35.616,189.746-35.616Zm0-3.125a3.332,3.332,0,0,1-3.369-3.637,3.332,3.332,0,0,1,3.369-3.637,3.315,3.315,0,0,1,3.344,3.637A3.315,3.315,0,0,1,189.746-38.741Zm17.5-10.4a5.1,5.1,0,0,0-4.126,1.709v-1.514h-3.637v17.87h3.808V-37.2a5.1,5.1,0,0,0,3.955,1.587,6.379,6.379,0,0,0,6.542-6.762A6.379,6.379,0,0,0,207.249-49.14Zm-.659,10.4a3.315,3.315,0,0,1-3.344-3.637,3.315,3.315,0,0,1,3.344-3.637,3.315,3.315,0,0,1,3.344,3.637A3.315,3.315,0,0,1,206.59-38.741Z" transform="translate(-182.52 49.14)" fill="#fff"/>
      <ellipse id="Ellipse_7" data-name="Ellipse 7" cx="1.55" cy="1.55" rx="1.55" ry="1.55" transform="translate(5.199 5.347)" fill="#fff"/>
      <ellipse id="Ellipse_10" data-name="Ellipse 10" cx="1.55" cy="1.55" rx="1.55" ry="1.55" transform="translate(21.983 5.347)" fill="#fff"/>
    </g>
  </g>
</svg>
