<svg xmlns="http://www.w3.org/2000/svg" xmlns:xlink="http://www.w3.org/1999/xlink" width="65" height="65" viewBox="0 0 65 65">
  <defs>
    <linearGradient id="linear-gradient" x1="0.5" x2="0.5" y2="1" gradientUnits="objectBoundingBox">
      <stop offset="0" stop-color="#ff704f"/>
      <stop offset="1" stop-color="#e11014"/>
    </linearGradient>
  </defs>
  <g id="icon-services-smart-school" transform="translate(-893 -1327)">
    <circle id="Ellipse_15" data-name="Ellipse 15" cx="32.5" cy="32.5" r="32.5" transform="translate(893 1327)" fill="url(#linear-gradient)"/>
    <g id="Group_9" data-name="Group 9" transform="translate(908 1342)">
      <path id="Subtraction_1" data-name="Subtraction 1" d="M12.048,22.258A12.046,12.046,0,0,1,1.552,4.291,12.131,12.131,0,0,1,5.65,0l5.589,5.824a22.928,22.928,0,0,0-1.911,5.422,2.121,2.121,0,0,0,.232,1.779,1.622,1.622,0,0,0,1.31.476c1.284,0,3.327-.686,6.245-2.1,3.187-3.149,5.138-5.062,6.018-5.922A12.044,12.044,0,0,1,12.048,22.258Z" transform="translate(0 12.742)" fill="none" stroke="#fff" stroke-width="1.75"/>
      <path id="Path_11" data-name="Path 11" d="M5727.051-117.05" transform="translate(-5726.482 126.305)" fill="none" stroke="#fff" stroke-width="1.75"/>
      <path id="Subtraction_2" data-name="Subtraction 2" d="M18.352,21.927h0l-11-10.892L1.2,17.13A11.906,11.906,0,0,1,11.909,0a11.908,11.908,0,0,1,10.41,17.7,12,12,0,0,1-3.967,4.227Z" transform="translate(11.458 0)" fill="none" stroke="#fff" stroke-width="1.75"/>
      <path id="Path_14" data-name="Path 14" d="M5802.915-115.324c-.386.528-1.664,1.823-1.664,1.823l-5.78-5.649,1.61-1.5a3.74,3.74,0,0,1,4.725.158A3.876,3.876,0,0,1,5802.915-115.324Z" transform="translate(-5775.114 128.598)" fill="none" stroke="#fff" stroke-width="1.75"/>
    </g>
  </g>
</svg>
