<svg xmlns="http://www.w3.org/2000/svg" xmlns:xlink="http://www.w3.org/1999/xlink" width="65" height="65" viewBox="0 0 65 65">
  <defs>
    <linearGradient id="linear-gradient" x1="0.5" x2="0.5" y2="1" gradientUnits="objectBoundingBox">
      <stop offset="0" stop-color="#ff704f"/>
      <stop offset="1" stop-color="#e11014"/>
    </linearGradient>
  </defs>
  <g id="icon-services-virtual-tour" transform="translate(-525 -1327)">
    <circle id="Ellipse_14" data-name="Ellipse 14" cx="32.5" cy="32.5" r="32.5" transform="translate(525 1327)" fill="url(#linear-gradient)"/>
    <g id="Group_7" data-name="Group 7">
      <g id="Icon_feather-map-pin" data-name="Icon feather-map-pin" transform="translate(550.216 1343.711)">
        <path id="Path_1" data-name="Path 1" d="M19.748,9.124c0,5.93-7.624,11.012-7.624,11.012S4.5,15.054,4.5,9.124a7.624,7.624,0,0,1,15.248,0Z" transform="translate(-4.5 -1.5)" fill="none" stroke="#fff" stroke-linecap="round" stroke-linejoin="round" stroke-width="2"/>
        <path id="Path_2" data-name="Path 2" d="M18.583,13.041A2.541,2.541,0,1,1,16.041,10.5a2.541,2.541,0,0,1,2.541,2.541Z" transform="translate(-8.417 -5.417)" fill="none" stroke="#fff" stroke-linecap="round" stroke-linejoin="round" stroke-width="2"/>
      </g>
      <g id="Group_6" data-name="Group 6" transform="translate(540.621 1343.711)">
        <path id="Subtraction_1" data-name="Subtraction 1" d="M-502.622-1313.063V-1332.1l9.6-4.172c0,.054,0,.113,0,.186,0,3.063,2.073,5.894,3.812,7.73a25.2,25.2,0,0,0,3.812,3.283c.044-.03,4.6-3.075,6.649-7.205l10.537-4.58v19.038l-10.946,4.758-12.511-4.758-10.947,4.758Z" transform="translate(502.621 1343.711)" fill="none" stroke="#fff" stroke-linecap="round" stroke-linejoin="round" stroke-width="2"/>
      </g>
      <path id="Path_6" data-name="Path 6" d="M513.069,1354.633v14.88" transform="translate(38)" fill="none" stroke="#fff" stroke-width="2"/>
      <path id="Path_7" data-name="Path 7" d="M513.069,1354.633v19.726" transform="translate(52)" fill="none" stroke="#fff" stroke-width="2"/>
    </g>
  </g>
</svg>
