<svg xmlns="http://www.w3.org/2000/svg" xmlns:xlink="http://www.w3.org/1999/xlink" width="65" height="65" viewBox="0 0 65 65">
  <defs>
    <linearGradient id="linear-gradient" x1="0.5" x2="0.5" y2="1" gradientUnits="objectBoundingBox">
      <stop offset="0" stop-color="#ff704f"/>
      <stop offset="1" stop-color="#e11014"/>
    </linearGradient>
  </defs>
  <g id="icon-services-safety-net" transform="translate(-525 -1327)">
    <circle id="Ellipse_14" data-name="Ellipse 14" cx="32.5" cy="32.5" r="32.5" transform="translate(525 1327)" fill="url(#linear-gradient)"/>
    <path id="Path_78" data-name="Path 78" d="M31.816,17.684a1.184,1.184,0,0,0,0-2.368H29.053V6.842h2.763a1.184,1.184,0,0,0,0-2.368H29.053V1.184a1.184,1.184,0,0,0-2.368,0V4.474H18.211V1.184a1.184,1.184,0,1,0-2.368,0V4.474H7.368V1.184A1.184,1.184,0,1,0,5,1.184V4.474H1.184a1.184,1.184,0,1,0,0,2.368H5v8.474H1.184a1.184,1.184,0,1,0,0,2.368H5v8.474H1.184a1.184,1.184,0,0,0,0,2.368H5v3.29a1.184,1.184,0,0,0,2.368,0v-3.29h8.474v3.29a1.184,1.184,0,0,0,2.368,0v-3.29h8.474v3.29a1.184,1.184,0,0,0,2.368,0v-3.29h2.763a1.184,1.184,0,0,0,0-2.368H29.053V17.684ZM26.684,6.842v8.474H18.211V6.842Zm-19.316,0h8.474v8.474H7.368Zm0,19.316V17.684h8.474v8.474Zm19.316,0H18.211V17.684h8.474Z" transform="translate(541 1343)" fill="#fff"/>
  </g>
</svg>
